<?xml version="1.0" encoding="UTF-8"?> <svg xmlns="http://www.w3.org/2000/svg" viewBox="0 0 100 100" fill-rule="evenodd"> <rect x="0" y="0" width="100" height="100" fill="#ffffff"></rect> <g fill="#7ab1ff"> <path d="M95.182 60.183c0-6.989-5.596-12.684-12.541-12.867-5.095-12.923-17.617-22.127-32.283-22.324 1.183-1.463 2.328-3.318 2.374-5.07.095-3.764-2.262-5.138-3.982-6.141-1.561-.91-2.311-1.414-2.314-2.915-.006-2.961 2.831-3.234 3.391-3.259a1.499 1.499 0 0 0 1.453-1.545 1.502 1.502 0 0 0-1.545-1.454c-2.183.066-6.309 1.461-6.299 6.265.009 3.287 2.201 4.565 3.803 5.499 1.719 1.002 2.543 1.568 2.495 3.472-.038 1.43-2.117 3.919-3.681 5.347-13.207 1.436-24.237 10.204-28.937 22.138-6.832.313-12.297 5.95-12.297 12.854 0 6.91 5.466 12.552 12.299 12.865C22.267 86.114 35.007 95.39 49.881 95.39c14.87 0 27.606-9.27 32.758-22.33 6.945-.181 12.543-5.881 12.543-12.877zm-87.363 0c0-4.885 3.569-8.943 8.236-9.734a35.102 35.102 0 0 0-1.381 9.738c0 3.38.489 6.646 1.382 9.741-4.668-.791-8.237-4.854-8.237-9.745zM49.881 92.39c-17.759 0-32.207-14.446-32.207-32.204 0-17.759 14.448-32.207 32.207-32.207s32.207 14.448 32.207 32.207c0 17.758-14.448 32.204-32.207 32.204zm33.814-22.422a35.063 35.063 0 0 0 .001-19.558c4.788.682 8.486 4.799 8.486 9.774 0 4.98-3.698 9.102-8.487 9.784z"></path> <path d="M40.655 56.378a1.5 1.5 0 0 0 3 0c0-3.843-3.128-6.969-6.973-6.969s-6.973 3.126-6.973 6.969a1.5 1.5 0 0 0 3 0c0-2.188 1.782-3.969 3.973-3.969s3.973 1.78 3.973 3.969zm22.056-6.97c-3.845 0-6.973 3.126-6.973 6.969a1.5 1.5 0 0 0 3 0c0-2.188 1.782-3.969 3.973-3.969s3.973 1.781 3.973 3.969a1.5 1.5 0 0 0 3 0c0-3.842-3.128-6.969-6.973-6.969zm1.187 16.851a1.5 1.5 0 0 0-1.5 1.5c0 6.904-5.615 12.52-12.518 12.52-6.901 0-12.517-5.616-12.517-12.52a1.5 1.5 0 0 0-3 0c0 8.558 6.961 15.52 15.517 15.52 8.557 0 15.518-6.962 15.518-15.52a1.5 1.5 0 0 0-1.5-1.5z"></path> </g> </svg> 