<?xml version="1.0" encoding="UTF-8"?> <svg xmlns="http://www.w3.org/2000/svg" viewBox="0 0 100 100" fill-rule="evenodd"> <rect x="0" y="0" width="100" height="100" fill="#ffffff"></rect> <g fill="#7ab1ff"> <path d="m37.23 32.37-2.45 14.3A1.5 1.5 0 0 0 37 48.24l12.8-6.75 12.84 6.75a1.5 1.5 0 0 0 2.18-1.58l-2.45-14.3 10.38-10.12a1.5 1.5 0 0 0-.83-2.56L57.56 17.6l-6.42-13a1.5 1.5 0 0 0-2.69 0L42 17.6l-14.32 2.08a1.5 1.5 0 0 0-.83 2.56Zm6-11.92a1.5 1.5 0 0 0 1.13-.82l5.42-11 5.42 11a1.5 1.5 0 0 0 1.13.82l12.13 1.76-8.76 8.56a1.5 1.5 0 0 0-.43 1.33l2.07 12.08-10.84-5.71a1.5 1.5 0 0 0-1.4 0l-10.85 5.7 2.07-12.07a1.5 1.5 0 0 0-.43-1.33l-8.78-8.55Z"></path> <path d="M85 45a1.5 1.5 0 0 0 0-.34v-.07a1.5 1.5 0 0 0-.1-.25l-.05-.09a1.48 1.48 0 0 0-.15-.2l-.06-.07a1.49 1.49 0 0 0-.27-.22L71.6 35.85A1.5 1.5 0 1 0 70 38.4l10.41 6.46L40.74 64.7 19.18 45.39l10.29-4.89a1.5 1.5 0 0 0-1.29-2.71l-12.32 5.86a1.49 1.49 0 0 0-.3.2l-.07.06a1.48 1.48 0 0 0-.21.24v.06a1.5 1.5 0 0 0-.16.34v.08a1.49 1.49 0 0 0 0 .32V75.2a1.5 1.5 0 0 0 .53 1.15l24 21.3a1.49 1.49 0 0 0 .4.23h.06a1.48 1.48 0 0 0 .47.08 1.5 1.5 0 0 0 .32 0h.07l.23-.08 43-21.3a1.5 1.5 0 0 0 .8-1.38V45Zm-67 3.36 21 18.81v26.1L18 74.5Zm64 25.89L42 94.13v-26.7l40-20Z"></path> </g> </svg> 